<svg width="20" height="21" viewBox="0 0 20 21" fill="none" xmlns="http://www.w3.org/2000/svg">
<path d="M8.80757 0.0393982C3.95121 0.0393982 0 3.99061 0 8.84697C0 13.7036 3.95121 17.6545 8.80757 17.6545C13.6642 17.6545 17.6151 13.7036 17.6151 8.84697C17.6151 3.99061 13.6642 0.0393982 8.80757 0.0393982ZM8.80757 16.0286C4.84769 16.0286 1.62601 12.8069 1.62601 8.84701C1.62601 4.88713 4.84769 1.66541 8.80757 1.66541C12.7675 1.66541 15.9891 4.88709 15.9891 8.84697C15.9891 12.8069 12.7675 16.0286 8.80757 16.0286Z" fill="#AEAEAE"/>
<path d="M19.7618 18.6516L15.1005 13.9903C14.7829 13.6727 14.2685 13.6727 13.9509 13.9903C13.6333 14.3077 13.6333 14.8226 13.9509 15.1399L18.6122 19.8012C18.771 19.96 18.9788 20.0394 19.187 20.0394C19.3948 20.0394 19.6029 19.96 19.7618 19.8012C20.0794 19.4838 20.0794 18.9689 19.7618 18.6516Z" fill="#AEAEAE"/>
</svg>
